<svg xmlns="http://www.w3.org/2000/svg" width="30" height="30" viewBox="0 0 512 512" version="1.1"><path d="M 124 256 C 124 404, 124 404, 156 404 C 188 404, 188 404, 188 341 L 188 278 256 278 L 324 278 324 341 C 324 404, 324 404, 356 404 C 388 404, 388 404, 388 256 C 388 108, 388 108, 356 108 C 324 108, 324 108, 324 161.500 L 324 215 256 215 L 188 215 188 161.500 C 188 108, 188 108, 156 108 C 124 108, 124 108, 124 256" stroke="none" fill="#faf9fb" fill-rule="evenodd"/><path d="M 126.500 1.441 C 62.144 11.677, 11.200 62.830, 1.455 127 C -0.684 141.084, -0.684 370.916, 1.455 385 C 8.773 433.187, 39.352 474.858, 83.500 496.804 C 93.753 501.901, 103.832 505.512, 117 508.805 C 127.500 511.431, 127.500 511.431, 250 511.776 C 337.133 512.022, 375.171 511.795, 381.751 510.989 C 434.467 504.530, 481.470 468.065, 501.450 418.124 C 505.759 407.354, 509.789 392.484, 510.637 384.222 C 510.992 380.769, 511.669 377.705, 512.141 377.413 C 512.613 377.121, 513 321.982, 513 254.882 C 513 173.803, 512.665 133.089, 512 133.500 C 511.415 133.861, 511 132.830, 511 131.017 C 511 121.421, 503.642 97.058, 496.384 82.620 C 488.609 67.156, 481.422 57.357, 468.033 43.967 C 450.032 25.966, 432.860 15.212, 410 7.623 C 387.232 0.064, 398.686 0.616, 259.500 0.380 C 162.332 0.215, 132.719 0.451, 126.500 1.441 M 124 256 C 124 404, 124 404, 156 404 C 188 404, 188 404, 188 341 L 188 278 256 278 L 324 278 324 341 C 324 404, 324 404, 356 404 C 388 404, 388 404, 388 256 C 388 108, 388 108, 356 108 C 324 108, 324 108, 324 161.500 L 324 215 256 215 L 188 215 188 161.500 C 188 108, 188 108, 156 108 C 124 108, 124 108, 124 256 M 0.484 256 C 0.484 323.375, 0.604 350.938, 0.750 317.250 C 0.896 283.563, 0.896 228.438, 0.750 194.750 C 0.604 161.063, 0.484 188.625, 0.484 256" stroke="none" fill="#7011c7" fill-rule="evenodd"/></svg>